<svg width="140" height="38" viewBox="0 0 140 38" fill="none" xmlns="http://www.w3.org/2000/svg">
<g filter="url(#filter0_d)">
<g clip-path="url(#clip0)">
<path d="M32.8917 0.0312347C32.8831 0.0335785 32.8744 0.0356879 32.8658 0.038266C32.8637 0.0389105 32.8615 0.0393793 32.8594 0.0400238L4.61875 8.80413C4.25131 8.91821 4.00065 9.25782 4 9.6426C3.99936 10.0274 4.24885 10.3678 4.616 10.4831L15.5054 13.902L13.4485 19.4203C13.3282 19.7429 13.4073 20.1059 13.6507 20.3493C13.8945 20.5931 14.2577 20.6716 14.5797 20.5515L20.0979 18.4947L23.517 29.3841C23.6321 29.7507 23.9719 30.0001 24.3561 30.0001C24.3565 30.0001 24.3571 30.0001 24.3575 30.0001C24.7422 29.9994 25.0819 29.7488 25.1959 29.3813L33.9599 1.14053C33.9605 1.13836 33.961 1.13614 33.9617 1.13397C33.9642 1.12553 33.9663 1.11704 33.9686 1.1086C34.1463 0.45018 33.5407 -0.143843 32.8917 0.0312347ZM7.83063 9.64893L28.5867 3.20754L16.4839 12.3659L7.83063 9.64893ZM15.7686 18.2313L17.3877 13.8875L28.5871 5.41284L20.1123 16.6122L15.7686 18.2313ZM24.351 26.1693L21.634 17.5159L30.7923 5.41319L24.351 26.1693Z" fill="#0F1138"/>
<path d="M10.9873 18.0385C10.6439 17.6951 10.0871 17.6951 9.74365 18.0385L4.46734 23.3148C4.12392 23.6582 4.12392 24.215 4.46734 24.5585C4.8107 24.9019 5.36752 24.9019 5.71099 24.5585L10.9873 19.2822C11.3307 18.9387 11.3307 18.3819 10.9873 18.0385Z" fill="#1A75E8"/>
<path d="M15.9614 23.0125C15.6179 22.669 15.0611 22.669 14.7177 23.0125L9.4414 28.2888C9.09798 28.6322 9.09798 29.189 9.4414 29.5325C9.78476 29.8759 10.3416 29.8759 10.6851 29.5325L15.9614 24.2562C16.3048 23.9128 16.3048 23.356 15.9614 23.0125Z" fill="#1A75E8"/>
<path d="M11.7156 22.2843C11.3722 21.9409 10.8154 21.9409 10.4719 22.2843L4.25756 28.4986C3.91415 28.8421 3.91415 29.3988 4.25756 29.7423C4.60092 30.0857 5.1578 30.0857 5.50122 29.7423L11.7156 23.5279C12.059 23.1845 12.059 22.6277 11.7156 22.2843Z" fill="#1A75E8"/>
</g>
<path d="M51.8594 16.3516H47.3594V21H45.0156V9.625H52.4219V11.5234H47.3594V14.4609H51.8594V16.3516Z" fill="#0F1138"/>
<path d="M56.0156 21H53.75V12.5469H56.0156V21ZM53.6172 10.3594C53.6172 10.0208 53.7292 9.74219 53.9531 9.52344C54.1823 9.30469 54.4922 9.19531 54.8828 9.19531C55.2682 9.19531 55.5755 9.30469 55.8047 9.52344C56.0339 9.74219 56.1484 10.0208 56.1484 10.3594C56.1484 10.7031 56.0312 10.9844 55.7969 11.2031C55.5677 11.4219 55.263 11.5312 54.8828 11.5312C54.5026 11.5312 54.1953 11.4219 53.9609 11.2031C53.7318 10.9844 53.6172 10.7031 53.6172 10.3594Z" fill="#0F1138"/>
<path d="M59.9609 12.5469L60.0312 13.5234C60.6354 12.7682 61.4453 12.3906 62.4609 12.3906C63.3568 12.3906 64.0234 12.6536 64.4609 13.1797C64.8984 13.7057 65.1224 14.4922 65.1328 15.5391V21H62.875V15.5938C62.875 15.1146 62.7708 14.7682 62.5625 14.5547C62.3542 14.3359 62.0078 14.2266 61.5234 14.2266C60.888 14.2266 60.4115 14.4974 60.0938 15.0391V21H57.8359V12.5469H59.9609Z" fill="#0F1138"/>
<path d="M66.5 16.7109C66.5 15.3932 66.7943 14.3438 67.3828 13.5625C67.9766 12.7812 68.7865 12.3906 69.8125 12.3906C70.6354 12.3906 71.3151 12.6979 71.8516 13.3125V9H74.1172V21H72.0781L71.9688 20.1016C71.4062 20.8047 70.6823 21.1562 69.7969 21.1562C68.8021 21.1562 68.0026 20.7656 67.3984 19.9844C66.7995 19.1979 66.5 18.1068 66.5 16.7109ZM68.7578 16.875C68.7578 17.6667 68.8958 18.2734 69.1719 18.6953C69.4479 19.1172 69.849 19.3281 70.375 19.3281C71.0729 19.3281 71.5651 19.0339 71.8516 18.4453V15.1094C71.5703 14.5208 71.0833 14.2266 70.3906 14.2266C69.3021 14.2266 68.7578 15.1094 68.7578 16.875Z" fill="#0F1138"/>
<path d="M79.9375 14.75L82.3047 9.625H84.8672L81.1328 16.875V21H78.75V16.875L75.0156 9.625H77.5859L79.9375 14.75Z" fill="#0F1138"/>
<path d="M84.8906 16.6953C84.8906 15.8568 85.0521 15.1094 85.375 14.4531C85.6979 13.7969 86.1615 13.2891 86.7656 12.9297C87.375 12.5703 88.0807 12.3906 88.8828 12.3906C90.0234 12.3906 90.9531 12.7396 91.6719 13.4375C92.3958 14.1354 92.7995 15.0833 92.8828 16.2812L92.8984 16.8594C92.8984 18.1562 92.5365 19.1979 91.8125 19.9844C91.0885 20.7656 90.1172 21.1562 88.8984 21.1562C87.6797 21.1562 86.7057 20.7656 85.9766 19.9844C85.2526 19.2031 84.8906 18.1406 84.8906 16.7969V16.6953ZM87.1484 16.8594C87.1484 17.6615 87.2995 18.276 87.6016 18.7031C87.9036 19.125 88.3359 19.3359 88.8984 19.3359C89.4453 19.3359 89.8724 19.1276 90.1797 18.7109C90.487 18.2891 90.6406 17.6172 90.6406 16.6953C90.6406 15.9089 90.487 15.2995 90.1797 14.8672C89.8724 14.4349 89.4401 14.2188 88.8828 14.2188C88.3307 14.2188 87.9036 14.4349 87.6016 14.8672C87.2995 15.2943 87.1484 15.9583 87.1484 16.8594Z" fill="#0F1138"/>
<path d="M99.3516 20.1406C98.7943 20.8177 98.0234 21.1562 97.0391 21.1562C96.1328 21.1562 95.4401 20.8958 94.9609 20.375C94.487 19.8542 94.2448 19.0911 94.2344 18.0859V12.5469H96.4922V18.0078C96.4922 18.888 96.8932 19.3281 97.6953 19.3281C98.4609 19.3281 98.987 19.0625 99.2734 18.5312V12.5469H101.539V21H99.4141L99.3516 20.1406Z" fill="#0F1138"/>
<path d="M107.992 14.6641C107.685 14.6224 107.414 14.6016 107.18 14.6016C106.326 14.6016 105.766 14.8906 105.5 15.4688V21H103.242V12.5469H105.375L105.438 13.5547C105.891 12.7786 106.518 12.3906 107.32 12.3906C107.57 12.3906 107.805 12.4245 108.023 12.4922L107.992 14.6641Z" fill="#0F1138"/>
<path d="M114.602 9.625H116.945V17.5C116.945 18.224 116.784 18.8646 116.461 19.4219C116.143 19.974 115.693 20.401 115.109 20.7031C114.526 21.0052 113.867 21.1562 113.133 21.1562C111.93 21.1562 110.992 20.8516 110.32 20.2422C109.648 19.6276 109.312 18.7604 109.312 17.6406H111.672C111.672 18.1979 111.789 18.6094 112.023 18.875C112.258 19.1406 112.628 19.2734 113.133 19.2734C113.581 19.2734 113.938 19.1198 114.203 18.8125C114.469 18.5052 114.602 18.0677 114.602 17.5V9.625Z" fill="#1A75E8"/>
<path d="M118.453 16.6953C118.453 15.8568 118.615 15.1094 118.938 14.4531C119.26 13.7969 119.724 13.2891 120.328 12.9297C120.938 12.5703 121.643 12.3906 122.445 12.3906C123.586 12.3906 124.516 12.7396 125.234 13.4375C125.958 14.1354 126.362 15.0833 126.445 16.2812L126.461 16.8594C126.461 18.1562 126.099 19.1979 125.375 19.9844C124.651 20.7656 123.68 21.1562 122.461 21.1562C121.242 21.1562 120.268 20.7656 119.539 19.9844C118.815 19.2031 118.453 18.1406 118.453 16.7969V16.6953ZM120.711 16.8594C120.711 17.6615 120.862 18.276 121.164 18.7031C121.466 19.125 121.898 19.3359 122.461 19.3359C123.008 19.3359 123.435 19.1276 123.742 18.7109C124.049 18.2891 124.203 17.6172 124.203 16.6953C124.203 15.9089 124.049 15.2995 123.742 14.8672C123.435 14.4349 123.003 14.2188 122.445 14.2188C121.893 14.2188 121.466 14.4349 121.164 14.8672C120.862 15.2943 120.711 15.9583 120.711 16.8594Z" fill="#1A75E8"/>
<path d="M135.469 16.8516C135.469 18.2057 135.18 19.263 134.602 20.0234C134.023 20.7786 133.216 21.1562 132.18 21.1562C131.263 21.1562 130.531 20.8047 129.984 20.1016L129.883 21H127.852V9H130.109V13.3047C130.63 12.6953 131.315 12.3906 132.164 12.3906C133.195 12.3906 134.003 12.7708 134.586 13.5312C135.174 14.2865 135.469 15.3516 135.469 16.7266V16.8516ZM133.211 16.6875C133.211 15.8333 133.076 15.2109 132.805 14.8203C132.534 14.4245 132.13 14.2266 131.594 14.2266C130.875 14.2266 130.38 14.5208 130.109 15.1094V18.4453C130.385 19.0391 130.885 19.3359 131.609 19.3359C132.339 19.3359 132.818 18.9766 133.047 18.2578C133.156 17.9141 133.211 17.3906 133.211 16.6875Z" fill="#1A75E8"/>
</g>
<defs>
<filter id="filter0_d" x="0" y="0" width="139.469" height="38" filterUnits="userSpaceOnUse" color-interpolation-filters="sRGB">
<feFlood flood-opacity="0" result="BackgroundImageFix"/>
<feColorMatrix in="SourceAlpha" type="matrix" values="0 0 0 0 0 0 0 0 0 0 0 0 0 0 0 0 0 0 127 0"/>
<feOffset dy="4"/>
<feGaussianBlur stdDeviation="2"/>
<feColorMatrix type="matrix" values="0 0 0 0 0 0 0 0 0 0 0 0 0 0 0 0 0 0 0.25 0"/>
<feBlend mode="normal" in2="BackgroundImageFix" result="effect1_dropShadow"/>
<feBlend mode="normal" in="SourceGraphic" in2="effect1_dropShadow" result="shape"/>
</filter>
<clipPath id="clip0">
<rect width="30" height="30" fill="white" transform="translate(4)"/>
</clipPath>
</defs>
</svg>
